<svg width="152" height="51" viewBox="0 0 152 51" fill="none" xmlns="http://www.w3.org/2000/svg">
<path d="M65.1164 21.8202C65.3295 16.7811 61.931 13.8834 56.7322 13.8834C51.1072 13.8834 46.1853 17.7932 45.0134 24.8138C43.8309 32.0581 47.5703 36.2981 53.5255 36.2981C59.0014 36.2981 62.8472 32.5588 64.0191 28.5425H59.3849C58.5646 30.8543 56.3913 32.2179 53.7705 32.2179C50.5958 32.2179 48.8593 29.8954 49.6051 25.3677C50.3828 20.6802 53.1633 17.9636 56.6576 17.9636C59.0759 17.9636 60.5674 19.4018 60.5141 21.8202H65.1164ZM73.7207 36.3194C78.6639 36.3194 82.2754 32.953 83.0957 27.9459C83.9267 22.8535 81.3912 19.4231 76.4054 19.4231C71.4516 19.4231 67.8401 22.779 67.0304 27.8074C66.1888 32.8891 68.7243 36.3194 73.7207 36.3194ZM74.1788 32.8038C71.9416 32.8038 71.1426 30.7371 71.6007 27.9246C72.0695 25.0375 73.6462 22.8855 75.9473 22.8855C78.1845 22.8855 78.9729 24.9629 78.5254 27.7861C78.046 30.6731 76.4693 32.8038 74.1788 32.8038ZM91.0236 36.2662C93.655 36.2662 95.2743 34.7427 96.1372 33.3791H96.329L95.8922 35.9998H100.367L103.989 14.1817H99.4504L98.0868 22.3848H97.9483C97.5754 21.0531 96.5314 19.4231 93.7935 19.4231C90.1926 19.4231 86.6983 22.2143 85.7715 27.8393C84.8659 33.3152 87.2736 36.2662 91.0236 36.2662ZM93.0158 32.6547C90.7786 32.6547 89.9369 30.6731 90.4163 27.818C90.8744 24.9842 92.3553 23.0346 94.6031 23.0346C96.8084 23.0346 97.7672 24.899 97.2878 27.818C96.8084 30.7371 95.1997 32.6547 93.0158 32.6547ZM111.791 36.3194C115.861 36.3194 118.876 34.3486 120.037 31.3123L115.893 31.0354C115.222 32.2818 113.943 32.9317 112.431 32.9317C110.108 32.9317 108.947 31.6746 109.362 29.0964L109.384 28.9793H120.527L120.73 27.7328C121.657 22.1717 118.759 19.4231 114.423 19.4231C109.608 19.4231 105.921 22.8429 105.08 27.8926C104.206 33.0808 106.752 36.3194 111.791 36.3194ZM109.895 26.1668C110.279 24.3663 112.015 22.8109 113.965 22.8109C115.925 22.8109 117.022 24.2172 116.703 26.1668H109.895ZM128.892 19.6362H124.204L127.528 27.818L121.307 35.9998H125.994L130.106 30.3429L132.397 35.9998H137.031L133.526 27.818L139.631 19.6362H134.975L130.937 25.3571L128.892 19.6362ZM151.33 19.6362H148.24L148.89 15.7158H144.352L143.702 19.6362H141.475L140.9 23.0453H143.137L141.731 31.568C141.156 34.7641 143.073 36.3514 146.408 36.2236C147.58 36.1916 148.443 35.9572 148.954 35.7974L148.783 32.4203C148.549 32.4629 148.059 32.5694 147.633 32.5694C146.727 32.5694 146.141 32.2285 146.355 30.9714L147.676 23.0453H150.765L151.33 19.6362Z" fill="#42B4EE"/>
<path d="M44.8275 8.03176L21.8275 21.5318C11.8271 18.0316 2.82793 13.5316 7.82746 7.03154C12.8273 2.03188 22.8275 9.53198 23.8275 8.53198C23.8275 8.53198 25.3279 5.53186 29.3275 0.0317561C36.3279 -0.46837 41.9941 5.03176 44.8275 8.03176Z" fill="#42B4EE"/>
<path d="M0.402934 20.4998C7.90293 22.8332 22.1029 29.2998 18.9029 36.4998C11.9033 43.9998 -2.59659 37.4998 0.402934 20.4998Z" fill="#42B4EE"/>
<path d="M29.4033 34.9998C27.0033 42.5998 16.0699 45.4998 10.9033 45.9998C23.7033 56 37.9033 48.1666 43.4033 42.9998C39.7366 37.1665 37.4033 39.9998 29.4033 34.9998Z" fill="#42B4EE"/>
</svg>
